<mxfile host="app.diagrams.net" agent="Mozilla/5.0 (X11; Linux x86_64; rv:140.0) Gecko/20100101 Firefox/140.0" version="28.0.7">
  <diagram name="Page-1" id="OS07XTmIC3BXOf1G0M_V">
    <mxGraphModel dx="1133" dy="638" grid="1" gridSize="10" guides="1" tooltips="1" connect="1" arrows="1" fold="1" page="1" pageScale="1" pageWidth="850" pageHeight="1100" math="1" shadow="0">
      <root>
        <mxCell id="0" />
        <mxCell id="1" parent="0" />
        <mxCell id="DTtQX17ekuQRlVGAZ62N-13" style="edgeStyle=orthogonalEdgeStyle;rounded=0;orthogonalLoop=1;jettySize=auto;html=1;exitX=0;exitY=0.5;exitDx=0;exitDy=0;entryX=0;entryY=0.5;entryDx=0;entryDy=0;" parent="1" source="DTtQX17ekuQRlVGAZ62N-1" target="DTtQX17ekuQRlVGAZ62N-2" edge="1">
          <mxGeometry relative="1" as="geometry" />
        </mxCell>
        <mxCell id="6pMEbDLd94fFy4jjy0z--5" value="$$\tau_{final}$$" style="edgeLabel;html=1;align=center;verticalAlign=middle;resizable=0;points=[];" vertex="1" connectable="0" parent="DTtQX17ekuQRlVGAZ62N-13">
          <mxGeometry x="-0.316" y="-1" relative="1" as="geometry">
            <mxPoint as="offset" />
          </mxGeometry>
        </mxCell>
        <mxCell id="DTtQX17ekuQRlVGAZ62N-1" value="LibFranka Admittance Controller" style="rounded=0;whiteSpace=wrap;html=1;" parent="1" vertex="1">
          <mxGeometry x="320" y="245" width="160" height="70" as="geometry" />
        </mxCell>
        <mxCell id="DTtQX17ekuQRlVGAZ62N-9" style="edgeStyle=orthogonalEdgeStyle;rounded=0;orthogonalLoop=1;jettySize=auto;html=1;exitX=0.5;exitY=1;exitDx=0;exitDy=0;entryX=0.5;entryY=0;entryDx=0;entryDy=0;" parent="1" source="DTtQX17ekuQRlVGAZ62N-2" target="DTtQX17ekuQRlVGAZ62N-1" edge="1">
          <mxGeometry relative="1" as="geometry" />
        </mxCell>
        <mxCell id="DTtQX17ekuQRlVGAZ62N-10" style="edgeStyle=orthogonalEdgeStyle;rounded=0;orthogonalLoop=1;jettySize=auto;html=1;exitX=0.5;exitY=1;exitDx=0;exitDy=0;entryX=0;entryY=0.5;entryDx=0;entryDy=0;" parent="1" source="DTtQX17ekuQRlVGAZ62N-2" target="DTtQX17ekuQRlVGAZ62N-8" edge="1">
          <mxGeometry relative="1" as="geometry" />
        </mxCell>
        <mxCell id="6pMEbDLd94fFy4jjy0z--3" value="$$\Theta$$" style="edgeLabel;html=1;align=center;verticalAlign=middle;resizable=0;points=[];" vertex="1" connectable="0" parent="DTtQX17ekuQRlVGAZ62N-10">
          <mxGeometry x="-0.8026" relative="1" as="geometry">
            <mxPoint y="-2" as="offset" />
          </mxGeometry>
        </mxCell>
        <mxCell id="DTtQX17ekuQRlVGAZ62N-2" value="&lt;div&gt;Robot&lt;/div&gt;" style="rounded=0;whiteSpace=wrap;html=1;" parent="1" vertex="1">
          <mxGeometry x="340" y="60" width="120" height="60" as="geometry" />
        </mxCell>
        <mxCell id="DTtQX17ekuQRlVGAZ62N-12" style="edgeStyle=orthogonalEdgeStyle;rounded=0;orthogonalLoop=1;jettySize=auto;html=1;exitX=0;exitY=0.5;exitDx=0;exitDy=0;entryX=1;entryY=0.5;entryDx=0;entryDy=0;" parent="1" source="DTtQX17ekuQRlVGAZ62N-3" target="DTtQX17ekuQRlVGAZ62N-1" edge="1">
          <mxGeometry relative="1" as="geometry" />
        </mxCell>
        <mxCell id="DTtQX17ekuQRlVGAZ62N-16" value="$$F_{ergodic}$$" style="edgeLabel;html=1;align=center;verticalAlign=middle;resizable=0;points=[];" parent="DTtQX17ekuQRlVGAZ62N-12" vertex="1" connectable="0">
          <mxGeometry x="-0.1409" y="1" relative="1" as="geometry">
            <mxPoint as="offset" />
          </mxGeometry>
        </mxCell>
        <mxCell id="DTtQX17ekuQRlVGAZ62N-3" value="Ergodic Planner" style="rounded=0;whiteSpace=wrap;html=1;" parent="1" vertex="1">
          <mxGeometry x="580" y="250" width="120" height="60" as="geometry" />
        </mxCell>
        <mxCell id="DTtQX17ekuQRlVGAZ62N-11" style="edgeStyle=orthogonalEdgeStyle;rounded=0;orthogonalLoop=1;jettySize=auto;html=1;exitX=0.5;exitY=1;exitDx=0;exitDy=0;entryX=0.5;entryY=0;entryDx=0;entryDy=0;" parent="1" source="DTtQX17ekuQRlVGAZ62N-8" target="DTtQX17ekuQRlVGAZ62N-3" edge="1">
          <mxGeometry relative="1" as="geometry" />
        </mxCell>
        <mxCell id="DTtQX17ekuQRlVGAZ62N-15" value="$$q$$" style="edgeLabel;html=1;align=center;verticalAlign=middle;resizable=0;points=[];" parent="DTtQX17ekuQRlVGAZ62N-11" vertex="1" connectable="0">
          <mxGeometry x="-0.1369" y="-1" relative="1" as="geometry">
            <mxPoint as="offset" />
          </mxGeometry>
        </mxCell>
        <mxCell id="DTtQX17ekuQRlVGAZ62N-8" value="ROS2 robot state publisher" style="rounded=0;whiteSpace=wrap;html=1;" parent="1" vertex="1">
          <mxGeometry x="580" y="140" width="120" height="60" as="geometry" />
        </mxCell>
        <mxCell id="DTtQX17ekuQRlVGAZ62N-17" value="" style="endArrow=classic;html=1;rounded=0;entryX=0.5;entryY=1;entryDx=0;entryDy=0;" parent="1" target="DTtQX17ekuQRlVGAZ62N-1" edge="1">
          <mxGeometry width="50" height="50" relative="1" as="geometry">
            <mxPoint x="400" y="400" as="sourcePoint" />
            <mxPoint x="450" y="270" as="targetPoint" />
          </mxGeometry>
        </mxCell>
        <mxCell id="DTtQX17ekuQRlVGAZ62N-18" value="$$F_{sensor}$$" style="edgeLabel;html=1;align=center;verticalAlign=middle;resizable=0;points=[];" parent="DTtQX17ekuQRlVGAZ62N-17" vertex="1" connectable="0">
          <mxGeometry x="-0.0004" y="2" relative="1" as="geometry">
            <mxPoint as="offset" />
          </mxGeometry>
        </mxCell>
        <mxCell id="DTtQX17ekuQRlVGAZ62N-19" value="\(\Theta = \theta,\dot\theta\)&lt;div&gt;\(q\) = EE pose in base frame&lt;/div&gt;" style="rounded=0;whiteSpace=wrap;html=1;" parent="1" vertex="1">
          <mxGeometry x="520" y="40" width="160" height="80" as="geometry" />
        </mxCell>
        <mxCell id="6pMEbDLd94fFy4jjy0z--1" value="" style="endArrow=classic;html=1;rounded=0;entryX=0.75;entryY=1;entryDx=0;entryDy=0;" edge="1" parent="1" target="DTtQX17ekuQRlVGAZ62N-1">
          <mxGeometry width="50" height="50" relative="1" as="geometry">
            <mxPoint x="440" y="400" as="sourcePoint" />
            <mxPoint x="640" y="320" as="targetPoint" />
          </mxGeometry>
        </mxCell>
        <mxCell id="6pMEbDLd94fFy4jjy0z--4" value="$$q_{equ}$$" style="edgeLabel;html=1;align=center;verticalAlign=middle;resizable=0;points=[];" vertex="1" connectable="0" parent="6pMEbDLd94fFy4jjy0z--1">
          <mxGeometry x="-0.0207" y="1" relative="1" as="geometry">
            <mxPoint as="offset" />
          </mxGeometry>
        </mxCell>
      </root>
    </mxGraphModel>
  </diagram>
</mxfile>
